# xmcd CD database file
#
# Track frame offsets:
#	150
#	11049
#	23716
#	38190
#	48439
#	61081
#	72056
#	84771
#	97544
#	110593
#	120863
#	137593
#
# Disc length: 2034 seconds
#
# Revision: 0
# Processed by: cddbd v1.5.2PL0 Copyright (c) Steve Scherf et al.
# Submitted via: CDex 1.70beta2
#
DISCID=8307f00c
DTITLE=Pete Rugolo - Adventures In Rhythm
DYEAR=1955
DGENRE=Jazz
TTITLE0=Here's Pete
TTITLE1=My Funny Valentine
TTITLE2=Mixin' The Blues
TTITLE3=Poinciana (Song Of The Tree)
TTITLE4=Rugolo Meets Shearing
TTITLE5=Sambamba
TTITLE6=King Porter Stomp
TTITLE7=You Are Too Beautiful
TTITLE8=Jingle Bells Mambo
TTITLE9=There Will Never Be Another You
TTITLE10=Conversation (The Shrike)
TTITLE11=Good Evening Friends Boogie
EXTD=YEAR: 1955
EXTT0=
EXTT1=
EXTT2=
EXTT3=
EXTT4=
EXTT5=
EXTT6=
EXTT7=
EXTT8=
EXTT9=
EXTT10=
EXTT11=
PLAYORDER=
